{
	"asset":{
		"generator":"Khronos glTF Blender I/O v4.2.83",
		"version":"2.0"
	},
	"extensionsUsed":[
		"KHR_materials_specular",
		"KHR_texture_transform"
	],
	"extensionsRequired":[
		"KHR_texture_transform"
	],
	"scene":0,
	"scenes":[
		{
			"name":"Scene",
			"nodes":[
				0,
				6
			]
		}
	],
	"nodes":[
		{
			"name":"Default",
			"rotation":[
				0,
				-1,
				0,
				1.6292068494294654e-07
			],
			"scale":[
				0.0010000000474974513,
				0.0010000000474974513,
				0.0010000000474974513
			]
		},
		{
			"mesh":0,
			"name":"Layer_Layer1"
		},
		{
			"mesh":1,
			"name":"Layer_Layer2"
		},
		{
			"mesh":2,
			"name":"Layer_Layer3"
		},
		{
			"mesh":3,
			"name":"Layer_Layer4"
		},
		{
			"mesh":4,
			"name":"Object002"
		},
		{
			"children":[
				1,
				2,
				3,
				4,
				5
			],
			"name":"Default.001",
			"rotation":[
				0.7071068286895752,
				0,
				0,
				0.7071068286895752
			],
			"scale":[
				0.0010000000474974513,
				0.0010000000474974513,
				0.0010000000474974513
			]
		}
	],
	"materials":[
		{
			"doubleSided":true,
			"extensions":{
				"KHR_materials_specular":{
					"specularColorFactor":[
						2.0,
						2.0,
						2.0
					]
				}
			},
			"name":"wire_255000255.001",
			"normalTexture":{
				"extensions":{
					"KHR_texture_transform":{
						"offset":[
							0,
							-9
						],
						"scale":[
							10,
							10
						]
					}
				},
				"index":0
			},
			"pbrMetallicRoughness":{
				"baseColorTexture":{
					"extensions":{
						"KHR_texture_transform":{
							"offset":[
								0,
								-9
							],
							"scale":[
								10,
								10
							]
						}
					},
					"index":1
				},
				"metallicRoughnessTexture":{
					"extensions":{
						"KHR_texture_transform":{
							"offset":[
								0,
								-9
							],
							"scale":[
								10,
								10
							]
						}
					},
					"index":2
				}
			}
		}
	],
	"meshes":[
		{
			"name":"Layer_Layer1.001",
			"primitives":[
				{
					"attributes":{
						"POSITION":0,
						"NORMAL":1,
						"TEXCOORD_0":2
					},
					"indices":3,
					"material":0
				}
			]
		},
		{
			"name":"Layer_Layer2.001",
			"primitives":[
				{
					"attributes":{
						"POSITION":4,
						"NORMAL":5,
						"TEXCOORD_0":6
					},
					"indices":7,
					"material":0
				}
			]
		},
		{
			"name":"Layer_Layer3.001",
			"primitives":[
				{
					"attributes":{
						"POSITION":8,
						"NORMAL":9,
						"TEXCOORD_0":10
					},
					"indices":11,
					"material":0
				}
			]
		},
		{
			"name":"Layer_Layer4.001",
			"primitives":[
				{
					"attributes":{
						"POSITION":12,
						"NORMAL":13,
						"TEXCOORD_0":14
					},
					"indices":15,
					"material":0
				}
			]
		},
		{
			"name":"Object002.001",
			"primitives":[
				{
					"attributes":{
						"POSITION":16,
						"NORMAL":17,
						"TEXCOORD_0":18
					},
					"indices":19,
					"material":0
				}
			]
		}
	],
	"textures":[
		{
			"sampler":0,
			"source":0
		},
		{
			"sampler":0,
			"source":1
		},
		{
			"sampler":0,
			"source":2
		}
	],
	"images":[
		{
			"mimeType":"image/png",
			"name":"stone_brick_wall_001_nor_dx_2k",
			"uri":"stone_brick_wall_001_nor_dx_2k.png"
		},
		{
			"mimeType":"image/jpeg",
			"name":"stone_brick_wall_001_diff_2k",
			"uri":"stone_brick_wall_001_diff_2k.jpg"
		},
		{
			"mimeType":"image/png",
			"name":"stone_brick_wall_001_rough_2k",
			"uri":"stone_brick_wall_001_rough_2k.png"
		}
	],
	"accessors":[
		{
			"bufferView":0,
			"componentType":5126,
			"count":21963,
			"max":[
				147.25650024414062,
				30.4778995513916,
				36.90250015258789
			],
			"min":[
				99.4210433959961,
				-23.70652961730957,
				32.812400817871094
			],
			"type":"VEC3"
		},
		{
			"bufferView":1,
			"componentType":5126,
			"count":21963,
			"type":"VEC3"
		},
		{
			"bufferView":2,
			"componentType":5126,
			"count":21963,
			"type":"VEC2"
		},
		{
			"bufferView":3,
			"componentType":5123,
			"count":119472,
			"type":"SCALAR"
		},
		{
			"bufferView":4,
			"componentType":5126,
			"count":38113,
			"max":[
				147.25650024414062,
				30.4779052734375,
				36.70249938964844
			],
			"min":[
				99.3934555053711,
				-23.701324462890625,
				24.702499389648438
			],
			"type":"VEC3"
		},
		{
			"bufferView":5,
			"componentType":5126,
			"count":38113,
			"type":"VEC3"
		},
		{
			"bufferView":6,
			"componentType":5126,
			"count":38113,
			"type":"VEC2"
		},
		{
			"bufferView":7,
			"componentType":5123,
			"count":196230,
			"type":"SCALAR"
		},
		{
			"bufferView":8,
			"componentType":5126,
			"count":47482,
			"max":[
				142.51800537109375,
				19.331600189208984,
				36.702510833740234
			],
			"min":[
				102.92440032958984,
				-20.093799591064453,
				33.01240158081055
			],
			"type":"VEC3"
		},
		{
			"bufferView":9,
			"componentType":5126,
			"count":47482,
			"type":"VEC3"
		},
		{
			"bufferView":10,
			"componentType":5126,
			"count":47482,
			"type":"VEC2"
		},
		{
			"bufferView":11,
			"componentType":5123,
			"count":251262,
			"type":"SCALAR"
		},
		{
			"bufferView":12,
			"componentType":5126,
			"count":26070,
			"max":[
				127.48200225830078,
				14.363500595092773,
				36.802398681640625
			],
			"min":[
				117.85820007324219,
				9.72350025177002,
				32.502498626708984
			],
			"type":"VEC3"
		},
		{
			"bufferView":13,
			"componentType":5126,
			"count":26070,
			"type":"VEC3"
		},
		{
			"bufferView":14,
			"componentType":5126,
			"count":26070,
			"type":"VEC2"
		},
		{
			"bufferView":15,
			"componentType":5123,
			"count":120648,
			"type":"SCALAR"
		},
		{
			"bufferView":16,
			"componentType":5126,
			"count":28187,
			"max":[
				142.4055938720703,
				9.319801330566406,
				36.70249938964844
			],
			"min":[
				102.92440032958984,
				-5.1864013671875,
				33.01250076293945
			],
			"type":"VEC3"
		},
		{
			"bufferView":17,
			"componentType":5126,
			"count":28187,
			"type":"VEC3"
		},
		{
			"bufferView":18,
			"componentType":5126,
			"count":28187,
			"type":"VEC2"
		},
		{
			"bufferView":19,
			"componentType":5123,
			"count":144516,
			"type":"SCALAR"
		}
	],
	"bufferViews":[
		{
			"buffer":0,
			"byteLength":263556,
			"byteOffset":0,
			"target":34962
		},
		{
			"buffer":0,
			"byteLength":263556,
			"byteOffset":263556,
			"target":34962
		},
		{
			"buffer":0,
			"byteLength":175704,
			"byteOffset":527112,
			"target":34962
		},
		{
			"buffer":0,
			"byteLength":238944,
			"byteOffset":702816,
			"target":34963
		},
		{
			"buffer":0,
			"byteLength":457356,
			"byteOffset":941760,
			"target":34962
		},
		{
			"buffer":0,
			"byteLength":457356,
			"byteOffset":1399116,
			"target":34962
		},
		{
			"buffer":0,
			"byteLength":304904,
			"byteOffset":1856472,
			"target":34962
		},
		{
			"buffer":0,
			"byteLength":392460,
			"byteOffset":2161376,
			"target":34963
		},
		{
			"buffer":0,
			"byteLength":569784,
			"byteOffset":2553836,
			"target":34962
		},
		{
			"buffer":0,
			"byteLength":569784,
			"byteOffset":3123620,
			"target":34962
		},
		{
			"buffer":0,
			"byteLength":379856,
			"byteOffset":3693404,
			"target":34962
		},
		{
			"buffer":0,
			"byteLength":502524,
			"byteOffset":4073260,
			"target":34963
		},
		{
			"buffer":0,
			"byteLength":312840,
			"byteOffset":4575784,
			"target":34962
		},
		{
			"buffer":0,
			"byteLength":312840,
			"byteOffset":4888624,
			"target":34962
		},
		{
			"buffer":0,
			"byteLength":208560,
			"byteOffset":5201464,
			"target":34962
		},
		{
			"buffer":0,
			"byteLength":241296,
			"byteOffset":5410024,
			"target":34963
		},
		{
			"buffer":0,
			"byteLength":338244,
			"byteOffset":5651320,
			"target":34962
		},
		{
			"buffer":0,
			"byteLength":338244,
			"byteOffset":5989564,
			"target":34962
		},
		{
			"buffer":0,
			"byteLength":225496,
			"byteOffset":6327808,
			"target":34962
		},
		{
			"buffer":0,
			"byteLength":289032,
			"byteOffset":6553304,
			"target":34963
		}
	],
	"samplers":[
		{
			"magFilter":9729,
			"minFilter":9987
		}
	],
	"buffers":[
		{
			"byteLength":6842336,
			"uri":"castillo_02_03.bin"
		}
	]
}
