{
	"asset":{
		"generator":"Khronos glTF Blender I/O v4.2.83",
		"version":"2.0"
	},
	"extensionsUsed":[
		"KHR_materials_specular",
		"KHR_texture_transform"
	],
	"extensionsRequired":[
		"KHR_texture_transform"
	],
	"scene":0,
	"scenes":[
		{
			"name":"Scene",
			"nodes":[
				0,
				1,
				2,
				3,
				4
			]
		}
	],
	"nodes":[
		{
			"mesh":0,
			"name":"Layer_Layer3",
			"rotation":[
				0.70710688829422,
				0,
				0,
				0.7071066498756409
			]
		},
		{
			"mesh":1,
			"name":"Layer_Layer2",
			"rotation":[
				0.70710688829422,
				0,
				0,
				0.7071066498756409
			]
		},
		{
			"mesh":2,
			"name":"Object002",
			"rotation":[
				0.70710688829422,
				0,
				0,
				0.7071066498756409
			]
		},
		{
			"mesh":3,
			"name":"Layer_Layer4",
			"rotation":[
				0.70710688829422,
				0,
				0,
				0.7071066498756409
			]
		},
		{
			"mesh":4,
			"name":"Layer_Layer1",
			"rotation":[
				0.70710688829422,
				0,
				0,
				0.7071066498756409
			]
		}
	],
	"materials":[
		{
			"doubleSided":true,
			"extensions":{
				"KHR_materials_specular":{
					"specularColorFactor":[
						2.0,
						2.0,
						2.0
					]
				}
			},
			"name":"roca2",
			"pbrMetallicRoughness":{
				"baseColorTexture":{
					"extensions":{
						"KHR_texture_transform":{
							"offset":[
								0,
								-8.99999985098839
							],
							"scale":[
								9.99999985098839,
								9.99999985098839
							]
						}
					},
					"index":0
				},
				"roughnessFactor":0.4343145787715912
			}
		}
	],
	"meshes":[
		{
			"name":"Layer_Layer3.001",
			"primitives":[
				{
					"attributes":{
						"POSITION":0,
						"NORMAL":1,
						"TEXCOORD_0":2
					},
					"indices":3,
					"material":0
				}
			]
		},
		{
			"name":"Layer_Layer2.001",
			"primitives":[
				{
					"attributes":{
						"POSITION":4,
						"NORMAL":5,
						"TEXCOORD_0":6
					},
					"indices":7,
					"material":0
				}
			]
		},
		{
			"name":"Object002.001",
			"primitives":[
				{
					"attributes":{
						"POSITION":8,
						"NORMAL":9,
						"TEXCOORD_0":10
					},
					"indices":11,
					"material":0
				}
			]
		},
		{
			"name":"Layer_Layer4.001",
			"primitives":[
				{
					"attributes":{
						"POSITION":12,
						"NORMAL":13,
						"TEXCOORD_0":14
					},
					"indices":15,
					"material":0
				}
			]
		},
		{
			"name":"Layer_Layer1.001",
			"primitives":[
				{
					"attributes":{
						"POSITION":16,
						"NORMAL":17,
						"TEXCOORD_0":18
					},
					"indices":19,
					"material":0
				}
			]
		}
	],
	"textures":[
		{
			"sampler":0,
			"source":0
		}
	],
	"images":[
		{
			"mimeType":"image/jpeg",
			"name":"stone_brick_wall_001_diff_2k",
			"uri":"stone_brick_wall_001_diff_2k.jpg"
		}
	],
	"accessors":[
		{
			"bufferView":0,
			"componentType":5126,
			"count":47482,
			"max":[
				18.45429229736328,
				17.361875534057617,
				-0.3296089172363281
			],
			"min":[
				-21.139312744140625,
				-22.06352424621582,
				-4.019718170166016
			],
			"type":"VEC3"
		},
		{
			"bufferView":1,
			"componentType":5126,
			"count":47482,
			"type":"VEC3"
		},
		{
			"bufferView":2,
			"componentType":5126,
			"count":47482,
			"type":"VEC2"
		},
		{
			"bufferView":3,
			"componentType":5123,
			"count":251262,
			"type":"SCALAR"
		},
		{
			"bufferView":4,
			"componentType":5126,
			"count":38113,
			"max":[
				23.192787170410156,
				28.508180618286133,
				-0.329620361328125
			],
			"min":[
				-24.670257568359375,
				-25.671049118041992,
				-12.329620361328125
			],
			"type":"VEC3"
		},
		{
			"bufferView":5,
			"componentType":5126,
			"count":38113,
			"type":"VEC3"
		},
		{
			"bufferView":6,
			"componentType":5126,
			"count":38113,
			"type":"VEC2"
		},
		{
			"bufferView":7,
			"componentType":5123,
			"count":196230,
			"type":"SCALAR"
		},
		{
			"bufferView":8,
			"componentType":5126,
			"count":28187,
			"max":[
				18.341880798339844,
				7.3500776290893555,
				-0.329620361328125
			],
			"min":[
				-21.139312744140625,
				-7.156125068664551,
				-4.019618988037109
			],
			"type":"VEC3"
		},
		{
			"bufferView":9,
			"componentType":5126,
			"count":28187,
			"type":"VEC3"
		},
		{
			"bufferView":10,
			"componentType":5126,
			"count":28187,
			"type":"VEC2"
		},
		{
			"bufferView":11,
			"componentType":5123,
			"count":144516,
			"type":"SCALAR"
		},
		{
			"bufferView":12,
			"componentType":5126,
			"count":26070,
			"max":[
				3.4182891845703125,
				12.393776893615723,
				-0.2297210693359375
			],
			"min":[
				-6.205513000488281,
				7.753776550292969,
				-4.529621124267578
			],
			"type":"VEC3"
		},
		{
			"bufferView":13,
			"componentType":5126,
			"count":26070,
			"type":"VEC3"
		},
		{
			"bufferView":14,
			"componentType":5126,
			"count":26070,
			"type":"VEC2"
		},
		{
			"bufferView":15,
			"componentType":5123,
			"count":120648,
			"type":"SCALAR"
		},
		{
			"bufferView":16,
			"componentType":5126,
			"count":21963,
			"max":[
				23.192787170410156,
				28.508174896240234,
				-0.12961959838867188
			],
			"min":[
				-24.642669677734375,
				-25.676254272460938,
				-4.219718933105469
			],
			"type":"VEC3"
		},
		{
			"bufferView":17,
			"componentType":5126,
			"count":21963,
			"type":"VEC3"
		},
		{
			"bufferView":18,
			"componentType":5126,
			"count":21963,
			"type":"VEC2"
		},
		{
			"bufferView":19,
			"componentType":5123,
			"count":119472,
			"type":"SCALAR"
		}
	],
	"bufferViews":[
		{
			"buffer":0,
			"byteLength":569784,
			"byteOffset":0,
			"target":34962
		},
		{
			"buffer":0,
			"byteLength":569784,
			"byteOffset":569784,
			"target":34962
		},
		{
			"buffer":0,
			"byteLength":379856,
			"byteOffset":1139568,
			"target":34962
		},
		{
			"buffer":0,
			"byteLength":502524,
			"byteOffset":1519424,
			"target":34963
		},
		{
			"buffer":0,
			"byteLength":457356,
			"byteOffset":2021948,
			"target":34962
		},
		{
			"buffer":0,
			"byteLength":457356,
			"byteOffset":2479304,
			"target":34962
		},
		{
			"buffer":0,
			"byteLength":304904,
			"byteOffset":2936660,
			"target":34962
		},
		{
			"buffer":0,
			"byteLength":392460,
			"byteOffset":3241564,
			"target":34963
		},
		{
			"buffer":0,
			"byteLength":338244,
			"byteOffset":3634024,
			"target":34962
		},
		{
			"buffer":0,
			"byteLength":338244,
			"byteOffset":3972268,
			"target":34962
		},
		{
			"buffer":0,
			"byteLength":225496,
			"byteOffset":4310512,
			"target":34962
		},
		{
			"buffer":0,
			"byteLength":289032,
			"byteOffset":4536008,
			"target":34963
		},
		{
			"buffer":0,
			"byteLength":312840,
			"byteOffset":4825040,
			"target":34962
		},
		{
			"buffer":0,
			"byteLength":312840,
			"byteOffset":5137880,
			"target":34962
		},
		{
			"buffer":0,
			"byteLength":208560,
			"byteOffset":5450720,
			"target":34962
		},
		{
			"buffer":0,
			"byteLength":241296,
			"byteOffset":5659280,
			"target":34963
		},
		{
			"buffer":0,
			"byteLength":263556,
			"byteOffset":5900576,
			"target":34962
		},
		{
			"buffer":0,
			"byteLength":263556,
			"byteOffset":6164132,
			"target":34962
		},
		{
			"buffer":0,
			"byteLength":175704,
			"byteOffset":6427688,
			"target":34962
		},
		{
			"buffer":0,
			"byteLength":238944,
			"byteOffset":6603392,
			"target":34963
		}
	],
	"samplers":[
		{
			"magFilter":9729,
			"minFilter":9987
		}
	],
	"buffers":[
		{
			"byteLength":6842336,
			"uri":"castillo_02_12.bin"
		}
	]
}
